<?xml version="1.0" standalone="yes"?>
<svg xmlns="http://www.w3.org/2000/svg" width="2143" height="2143">
<path style="fill:#ffffff; stroke:none;" d="M0 0L0 2143L2143 2143L2143 0L0 0z"/>
<path style="fill:#1877f2; stroke:none;" d="M905 2126L905 1380L634 1380L634 1071L905 1071L905 885C905 858.415 903.877 831.557 905.039 805C906.728 766.436 912.832 727.171 923.427 690C934.024 652.826 949.243 616.295 970.667 584C987.881 558.053 1007.69 534.73 1031 514.05C1047.03 499.829 1064.59 487.518 1083 476.603C1203.76 405.003 1350.53 417.175 1484 433.155C1505.06 435.677 1525.97 439.342 1547 442L1547 705C1500.86 705 1454 702.76 1408 705.911C1402.02 706.32 1395.97 705.601 1390 706.17C1359.44 709.079 1329.1 715.701 1303 732.695C1294.53 738.208 1287.09 744.833 1280 752C1237.87 794.633 1239 854.467 1239 910L1239 1071L1535 1071C1529.47 1092.36 1528.06 1115.22 1524.56 1137C1515.64 1192.57 1509.14 1248.71 1498.8 1304C1495.34 1322.52 1493.73 1341.44 1490.39 1360C1489.52 1364.83 1489.99 1375.95 1485.57 1378.97C1481.41 1381.82 1471.86 1380 1467 1380L1420 1380L1239 1380L1239 2126C1291.06 2116.19 1342.32 2105.72 1393 2089.97C1509.09 2053.9 1620.67 1996.57 1717 1922.35C1829.15 1835.93 1924.42 1729.6 1995.58 1607C2134.12 1368.28 2173.97 1078.46 2107.1 811C2079.53 700.682 2033.86 594.988 1972.95 499C1909.31 398.717 1828.66 309.929 1736 235.8C1641.96 160.569 1533.36 100.121 1419 62C1293.61 20.2024 1161.28 -0.749512 1029 5.03931C891.001 11.0784 753.796 42.5474 628 100.309C514.754 152.308 411.175 224.024 322 311.015C200.008 430.018 107.184 581.753 55.3441 744C27.9575 829.715 12.226 918.39 6.08951 1008C4.47715 1031.55 4.72469 1055.42 4.99614 1079C6.22031 1185.36 21.3768 1290.16 53.0255 1392C89.0506 1507.92 146.117 1616.99 218.873 1714C300.975 1823.47 404.67 1916.6 522 1987C611.228 2040.54 708.007 2081.13 809 2106.37C840.562 2114.26 872.687 2121.89 905 2126z"/>
<path style="fill:#5299f5; stroke:none;" d="M1288 421C1291.16 422.327 1294.59 422 1298 422C1294.84 420.673 1291.41 421 1288 421z"/>
<path style="fill:#9cc5f9; stroke:none;" d="M1298 421C1304.44 423.704 1314.03 422 1321 422C1314.56 419.296 1304.97 421 1298 421z"/>
<path style="fill:#5299f5; stroke:none;" d="M1321 421C1324.96 422.661 1329.74 422 1334 422C1330.04 420.339 1325.26 421 1321 421M1268 422C1269.51 422.683 1270.31 422.826 1272 423C1270.49 422.317 1269.69 422.174 1268 422z"/>
<path style="fill:#9cc5f9; stroke:none;" d="M1272 422C1273.77 422.779 1275.04 422.912 1277 423C1275.23 422.221 1273.96 422.088 1272 422z"/>
<path style="fill:#deecfd; stroke:none;" d="M1277 422C1278.51 422.683 1279.31 422.826 1281 423C1279.49 422.317 1278.69 422.174 1277 422M1343 422C1345.33 422.984 1347.46 422.981 1350 423C1347.67 422.016 1345.54 422.019 1343 422z"/>
<path style="fill:#9cc5f9; stroke:none;" d="M1350 422C1352.05 422.874 1353.75 422.953 1356 423C1353.95 422.126 1352.25 422.047 1350 422z"/>
<path style="fill:#5299f5; stroke:none;" d="M1356 422C1358.05 422.874 1359.75 422.953 1362 423C1359.95 422.126 1358.25 422.047 1356 422M1256 423C1257.25 423.685 1257.55 423.749 1259 424C1257.75 423.315 1257.45 423.251 1256 423z"/>
<path style="fill:#9cc5f9; stroke:none;" d="M1259 423C1260.25 423.685 1260.55 423.749 1262 424C1260.75 423.315 1260.45 423.251 1259 423z"/>
<path style="fill:#deecfd; stroke:none;" d="M1367 423C1368.77 423.779 1370.04 423.912 1372 424C1370.23 423.221 1368.96 423.088 1367 423z"/>
<path style="fill:#9cc5f9; stroke:none;" d="M1372 423C1373.51 423.683 1374.31 423.826 1376 424C1374.49 423.317 1373.69 423.174 1372 423z"/>
<path style="fill:#5299f5; stroke:none;" d="M1376 423C1377.77 423.779 1379.04 423.912 1381 424C1379.23 423.221 1377.96 423.088 1376 423M1246 424C1247.25 424.685 1247.55 424.749 1249 425C1247.75 424.315 1247.45 424.251 1246 424z"/>
<path style="fill:#aacdfa; stroke:none;" d="M1249.67 424.333C1249.22 424.778 1250.28 424.722 1250.33 424.667C1250.78 424.222 1249.72 424.278 1249.67 424.333z"/>
<path style="fill:#9cc5f9; stroke:none;" d="M1388 424C1389.51 424.683 1390.31 424.826 1392 425C1390.49 424.317 1389.69 424.174 1388 424z"/>
<path style="fill:#5299f5; stroke:none;" d="M1392 424C1393.51 424.683 1394.31 424.826 1396 425C1394.49 424.317 1393.69 424.174 1392 424z"/>
<path style="fill:#60a2f6; stroke:none;" d="M1238.67 425.333C1238.22 425.778 1239.28 425.722 1239.33 425.667C1239.78 425.222 1238.72 425.278 1238.67 425.333z"/>
<path style="fill:#aacdfa; stroke:none;" d="M1240.67 425.333C1240.22 425.778 1241.28 425.722 1241.33 425.667C1241.78 425.223 1240.72 425.278 1240.67 425.333z"/>
<path style="fill:#9cc5f9; stroke:none;" d="M1402 425C1403.51 425.683 1404.31 425.826 1406 426C1404.49 425.317 1403.69 425.174 1402 425z"/>
<path style="fill:#5299f5; stroke:none;" d="M1406 425C1407.25 425.685 1407.55 425.749 1409 426C1407.75 425.315 1407.45 425.251 1406 425M1230.67 426.333C1230.22 426.778 1231.28 426.722 1231.33 426.667C1231.78 426.222 1230.72 426.278 1230.67 426.333z"/>
<path style="fill:#9cc5f9; stroke:none;" d="M1232.67 426.333C1232.22 426.778 1233.28 426.722 1233.33 426.667C1233.78 426.222 1232.72 426.278 1232.67 426.333M1415 426C1416.25 426.685 1416.55 426.749 1418 427C1416.75 426.315 1416.45 426.251 1415 426z"/>
<path style="fill:#5299f5; stroke:none;" d="M1418 426C1419.25 426.685 1419.55 426.749 1421 427C1419.75 426.315 1419.45 426.251 1418 426z"/>
<path style="fill:#73acf7; stroke:none;" d="M1224 427C1225.25 427.685 1225.55 427.749 1227 428C1225.75 427.315 1225.45 427.251 1224 427z"/>
<path style="fill:#9cc5f9; stroke:none;" d="M1427.67 427.333C1427.22 427.777 1428.28 427.722 1428.33 427.667C1428.78 427.223 1427.72 427.277 1427.67 427.333z"/>
<path style="fill:#5299f5; stroke:none;" d="M1429 427C1430.25 427.685 1430.55 427.749 1432 428C1430.75 427.315 1430.45 427.251 1429 427z"/>
<path style="fill:#85b7f8; stroke:none;" d="M1218 428C1219.25 428.685 1219.55 428.749 1221 429C1219.75 428.315 1219.45 428.251 1218 428z"/>
<path style="fill:#9cc5f9; stroke:none;" d="M1437 428C1438.25 428.685 1438.55 428.749 1440 429C1438.75 428.315 1438.45 428.251 1437 428z"/>
<path style="fill:#5299f5; stroke:none;" d="M1440 428C1441.25 428.685 1441.55 428.749 1443 429C1441.75 428.315 1441.45 428.251 1440 428z"/>
<path style="fill:#73acf7; stroke:none;" d="M1212.67 429.333C1212.22 429.778 1213.28 429.722 1213.33 429.667C1213.78 429.222 1212.72 429.278 1212.67 429.333z"/>
<path style="fill:#9cc5f9; stroke:none;" d="M1447 429C1448.25 429.685 1448.55 429.749 1450 430C1448.75 429.315 1448.45 429.251 1447 429z"/>
<path style="fill:#5299f5; stroke:none;" d="M1450.67 429.333C1450.22 429.778 1451.28 429.722 1451.33 429.667C1451.78 429.223 1450.72 429.278 1450.67 429.333z"/>
<path style="fill:#bcd8fb; stroke:none;" d="M1208.67 430.333C1208.22 430.777 1209.28 430.722 1209.33 430.667C1209.78 430.222 1208.72 430.278 1208.67 430.333z"/>
<path style="fill:#dbeafd; stroke:none;" d="M1455.67 430.333C1455.22 430.778 1456.28 430.722 1456.33 430.667C1456.78 430.222 1455.72 430.278 1455.67 430.333z"/>
<path style="fill:#9cc5f9; stroke:none;" d="M1457.67 430.333C1457.22 430.778 1458.28 430.722 1458.33 430.667C1458.78 430.222 1457.72 430.278 1457.67 430.333z"/>
<path style="fill:#5299f5; stroke:none;" d="M1459 430C1460.25 430.685 1460.55 430.749 1462 431C1460.75 430.315 1460.45 430.251 1459 430z"/>
<path style="fill:#cce1fc; stroke:none;" d="M1203.67 431.333C1203.22 431.777 1204.28 431.722 1204.33 431.667C1204.78 431.222 1203.72 431.278 1203.67 431.333z"/>
<path style="fill:#dbeafd; stroke:none;" d="M1464.67 431.333C1464.22 431.777 1465.28 431.722 1465.33 431.667C1465.78 431.222 1464.72 431.277 1464.67 431.333z"/>
<path style="fill:#9cc5f9; stroke:none;" d="M1466.67 431.333C1466.22 431.777 1467.28 431.722 1467.33 431.667C1467.78 431.223 1466.72 431.277 1466.67 431.333z"/>
<path style="fill:#5299f5; stroke:none;" d="M1468 431C1469.25 431.685 1469.55 431.749 1471 432C1469.75 431.315 1469.45 431.251 1468 431z"/>
<path style="fill:#85b7f8; stroke:none;" d="M1197.67 432.333C1197.22 432.777 1198.28 432.722 1198.33 432.667C1198.78 432.223 1197.72 432.278 1197.67 432.333z"/>
<path style="fill:#cce1fc; stroke:none;" d="M1473.67 432.333C1473.22 432.778 1474.28 432.722 1474.33 432.667C1474.78 432.222 1473.72 432.278 1473.67 432.333z"/>
<path style="fill:#85b7f8; stroke:none;" d="M1475.67 432.333C1475.22 432.777 1476.28 432.722 1476.33 432.667C1476.78 432.222 1475.72 432.278 1475.67 432.333z"/>
<path style="fill:#5299f5; stroke:none;" d="M1477.67 432.333C1477.22 432.777 1478.28 432.722 1478.33 432.667C1478.78 432.223 1477.72 432.278 1477.67 432.333z"/>
<path style="fill:#60a2f6; stroke:none;" d="M1193 433L1194 434L1193 433z"/>
<path style="fill:#dbeafd; stroke:none;" d="M1481.67 433.333C1481.22 433.778 1482.28 433.722 1482.33 433.667C1482.78 433.223 1481.72 433.278 1481.67 433.333z"/>
<path style="fill:#9cc5f9; stroke:none;" d="M1483.67 433.333C1483.22 433.778 1484.28 433.722 1484.33 433.667C1484.78 433.223 1483.72 433.277 1483.67 433.333z"/>
<path style="fill:#5299f5; stroke:none;" d="M1485.67 433.333C1485.22 433.778 1486.28 433.722 1486.33 433.667C1486.78 433.223 1485.72 433.277 1485.67 433.333z"/>
<path style="fill:#73acf7; stroke:none;" d="M1189 434L1190 435L1189 434z"/>
<path style="fill:#98c2f9; stroke:none;" d="M1491.67 434.333C1491.22 434.778 1492.28 434.722 1492.33 434.667C1492.78 434.222 1491.72 434.278 1491.67 434.333z"/>
<path style="fill:#5299f5; stroke:none;" d="M1493.67 434.333C1493.22 434.778 1494.28 434.722 1494.33 434.667C1494.78 434.222 1493.72 434.278 1493.67 434.333z"/>
<path style="fill:#85b7f8; stroke:none;" d="M1185 435L1186 436L1185 435z"/>
<path style="fill:#dbeafd; stroke:none;" d="M1497.67 435.333C1497.22 435.778 1498.28 435.722 1498.33 435.667C1498.78 435.223 1497.72 435.278 1497.67 435.333z"/>
<path style="fill:#85b7f8; stroke:none;" d="M1499.67 435.333C1499.22 435.778 1500.28 435.722 1500.33 435.667C1500.78 435.223 1499.72 435.278 1499.67 435.333z"/>
<path style="fill:#4391f4; stroke:none;" d="M1501.67 435.333C1501.22 435.778 1502.28 435.722 1502.33 435.667C1502.78 435.223 1501.72 435.278 1501.67 435.333z"/>
<path style="fill:#85b7f8; stroke:none;" d="M1181 436L1182 437L1181 436z"/>
<path style="fill:#9cc5f9; stroke:none;" d="M1506.67 436.333C1506.22 436.778 1507.28 436.722 1507.33 436.667C1507.78 436.222 1506.72 436.278 1506.67 436.333z"/>
<path style="fill:#5299f5; stroke:none;" d="M1508.67 436.333C1508.22 436.778 1509.28 436.722 1509.33 436.667C1509.78 436.222 1508.72 436.278 1508.67 436.333z"/>
<path style="fill:#73acf7; stroke:none;" d="M1177 437L1178 438L1177 437z"/>
<path style="fill:#cce1fc; stroke:none;" d="M1512.67 437.333C1512.22 437.778 1513.28 437.722 1513.33 437.667C1513.78 437.223 1512.72 437.278 1512.67 437.333z"/>
<path style="fill:#73acf7; stroke:none;" d="M1514 437C1515.25 437.685 1515.55 437.749 1517 438C1515.75 437.315 1515.45 437.251 1514 437z"/>
<path style="fill:#60a2f6; stroke:none;" d="M1173 438L1174 439L1173 438z"/>
<path style="fill:#aacdfa; stroke:none;" d="M1174 438L1175 439L1174 438z"/>
<path style="fill:#cce1fc; stroke:none;" d="M1519.67 438.333C1519.22 438.778 1520.28 438.722 1520.33 438.667C1520.78 438.223 1519.72 438.278 1519.67 438.333z"/>
<path style="fill:#73acf7; stroke:none;" d="M1521 438C1522.25 438.685 1522.55 438.749 1524 439C1522.75 438.315 1522.45 438.251 1521 438z"/>
<path style="fill:#85b7f8; stroke:none;" d="M1170 439L1171 440L1170 439z"/>
<path style="fill:#c8defc; stroke:none;" d="M1526 439C1527.25 439.685 1527.55 439.749 1529 440C1527.75 439.315 1527.45 439.251 1526 439z"/>
<path style="fill:#5299f5; stroke:none;" d="M1529.67 439.333C1529.22 439.778 1530.28 439.722 1530.33 439.667C1530.78 439.222 1529.72 439.278 1529.67 439.333z"/>
<path style="fill:#60a2f6; stroke:none;" d="M1166 440L1167 441L1166 440z"/>
<path style="fill:#aacdfa; stroke:none;" d="M1167 440L1168 441L1167 440z"/>
<path style="fill:#98c2f9; stroke:none;" d="M1534.67 440.333C1534.22 440.778 1535.28 440.722 1535.33 440.667C1535.78 440.222 1534.72 440.278 1534.67 440.333z"/>
<path style="fill:#73acf7; stroke:none;" d="M1163 441L1164 442L1163 441z"/>
<path style="fill:#cce1fc; stroke:none;" d="M1539 441C1540.25 441.685 1540.55 441.749 1542 442C1540.75 441.315 1540.45 441.251 1539 441z"/>
<path style="fill:#4391f4; stroke:none;" d="M1542.67 441.333C1542.22 441.778 1543.28 441.722 1543.33 441.667C1543.78 441.222 1542.72 441.278 1542.67 441.333z"/>
<path style="fill:#85b7f8; stroke:none;" d="M1160 442L1161 443L1160 442z"/>
<path style="fill:#deecfd; stroke:none;" d="M1546 442L1546 705C1548.5 699.049 1547 690.42 1547 684L1547 639L1547 500L1547 461C1547 455.113 1548.29 447.463 1546 442z"/>
<path style="fill:#a5cafa; stroke:none;" d="M1157 443L1158 444L1157 443M1154 444L1155 445L1154 444M1151 445L1152 446L1151 445M1148 446L1149 447L1148 446z"/>
<path style="fill:#85b7f8; stroke:none;" d="M1145 447L1146 448L1145 447z"/>
<path style="fill:#73acf7; stroke:none;" d="M1142 448L1143 449L1142 448z"/>
<path style="fill:#60a2f6; stroke:none;" d="M1139 449L1140 450L1139 449z"/>
<path style="fill:#bcd8fb; stroke:none;" d="M1140 449L1141 450L1140 449z"/>
<path style="fill:#98c2f9; stroke:none;" d="M1137 450L1138 451L1137 450z"/>
<path style="fill:#73acf7; stroke:none;" d="M1134 451L1135 452L1134 451z"/>
<path style="fill:#b7d5fb; stroke:none;" d="M1132 452L1133 453L1132 452z"/>
<path style="fill:#73acf7; stroke:none;" d="M1129 453L1130 454L1129 453z"/>
<path style="fill:#a5cafa; stroke:none;" d="M1127 454L1128 455L1127 454z"/>
<path style="fill:#60a2f6; stroke:none;" d="M1124 455L1125 456L1124 455z"/>
<path style="fill:#85b7f8; stroke:none;" d="M1122 456L1123 457L1122 456z"/>
<path style="fill:#b7d5fb; stroke:none;" d="M1120 457L1121 458L1120 457z"/>
<path style="fill:#73acf7; stroke:none;" d="M1115 459L1116 460L1115 459z"/>
<path style="fill:#85b7f8; stroke:none;" d="M1113 460L1114 461L1113 460z"/>
<path style="fill:#93c0f9; stroke:none;" d="M1111 461L1112 462L1111 461z"/>
<path style="fill:#a5cafa; stroke:none;" d="M1109 462L1110 463L1109 462z"/>
<path style="fill:#b7d5fb; stroke:none;" d="M1107 463L1108 464L1107 463M1105 464L1106 465L1105 464M1103 465L1104 466L1103 465M1101 466L1102 467L1101 466M1099 467L1100 468L1099 467M1097 468L1098 469L1097 468z"/>
<path style="fill:#93c0f9; stroke:none;" d="M1095 469L1096 470L1095 469M1093 470L1094 471L1093 470z"/>
<path style="fill:#73acf7; stroke:none;" d="M1091 471L1092 472L1091 471z"/>
<path style="fill:#a5cafa; stroke:none;" d="M1086 474L1087 475L1086 474z"/>
<path style="fill:#81b5f8; stroke:none;" d="M1084 475L1085 476L1084 475z"/>
<path style="fill:#93c0f9; stroke:none;" d="M1079 478L1080 479L1079 478z"/>
<path style="fill:#81b5f8; stroke:none;" d="M1074 481L1075 482L1074 481z"/>
<path style="fill:#a5cafa; stroke:none;" d="M1071 483L1072 484L1071 483M1068 485L1069 486L1068 485z"/>
<path style="fill:#63a3f6; stroke:none;" d="M1066 486L1067 487L1066 486M1063 488L1064 489L1063 488z"/>
<path style="fill:#a5cafa; stroke:none;" d="M1062 489L1063 490L1062 489M1059 491L1060 492L1059 491z"/>
<path style="fill:#81b5f8; stroke:none;" d="M1056 493L1057 494L1056 493z"/>
<path style="fill:#93c0f9; stroke:none;" d="M1052 496L1053 497L1052 496M1048 499L1049 500L1048 499z"/>
<path style="fill:#81b5f8; stroke:none;" d="M1044 502L1045 503L1044 502z"/>
<path style="fill:#b4d3fb; stroke:none;" d="M1043 503L1044 504L1043 503z"/>
<path style="fill:#73acf7; stroke:none;" d="M1039 506L1040 507L1039 506z"/>
<path style="fill:#b4d3fb; stroke:none;" d="M1038 507L1039 508L1038 507z"/>
<path style="fill:#73acf7; stroke:none;" d="M1033 511L1034 512L1033 511z"/>
<path style="fill:#a5cafa; stroke:none;" d="M1032 512L1033 513L1032 512z"/>
<path style="fill:#b4d3fb; stroke:none;" d="M1031 513L1032 514L1031 513z"/>
<path style="fill:#73acf7; stroke:none;" d="M1025 518L1026 519L1025 518M1024 519L1025 520L1024 519M1023 520L1024 521L1023 520z"/>
<path style="fill:#a5cafa; stroke:none;" d="M1022 521L1023 522L1022 521z"/>
<path style="fill:#b4d3fb; stroke:none;" d="M1021 522L1022 523L1021 522M1020 523L1021 524L1020 523M1019 524L1020 525L1019 524M1018 525L1019 526L1018 525M1017 526L1018 527L1017 526M1016 527L1017 528L1016 527M1013 530L1014 531L1013 530M1012 531L1013 532L1012 531M1011 532L1012 533L1011 532M1010 533L1011 534L1010 533M1009 534L1010 535L1009 534M1008 535L1009 536L1008 535z"/>
<path style="fill:#93c0f9; stroke:none;" d="M1007 536L1008 537L1007 536z"/>
<path style="fill:#73acf7; stroke:none;" d="M1006 537L1007 538L1006 537M1005 538L1006 539L1005 538z"/>
<path style="fill:#63a3f6; stroke:none;" d="M1004 539L1005 540L1004 539z"/>
<path style="fill:#b4d3fb; stroke:none;" d="M999 545L1000 546L999 545z"/>
<path style="fill:#93c0f9; stroke:none;" d="M998 546L999 547L998 546z"/>
<path style="fill:#73acf7; stroke:none;" d="M997 547L998 548L997 547z"/>
<path style="fill:#a5cafa; stroke:none;" d="M993 552L994 553L993 552z"/>
<path style="fill:#73acf7; stroke:none;" d="M992 553L993 554L992 553z"/>
<path style="fill:#a5cafa; stroke:none;" d="M989 557L990 558L989 557z"/>
<path style="fill:#73acf7; stroke:none;" d="M988 558L989 559L988 558z"/>
<path style="fill:#81b5f8; stroke:none;" d="M985 562L986 563L985 562M982 566L983 567L982 566z"/>
<path style="fill:#b4d3fb; stroke:none;" d="M980 569L981 570L980 569z"/>
<path style="fill:#63a3f6; stroke:none;" d="M979 570L980 571L979 570z"/>
<path style="fill:#81b5f8; stroke:none;" d="M977 573L978 574L977 573z"/>
<path style="fill:#93c0f9; stroke:none;" d="M975 576L976 577L975 576z"/>
<path style="fill:#a5cafa; stroke:none;" d="M973 579L974 580L973 579z"/>
<path style="fill:#93c0f9; stroke:none;" d="M971 582L972 583L971 582M969 585L970 586L969 585z"/>
<path style="fill:#63a3f6; stroke:none;" d="M967 588L968 589L967 588z"/>
<path style="fill:#a5cafa; stroke:none;" d="M966 590L967 591L966 590z"/>
<path style="fill:#81b5f8; stroke:none;" d="M964 593L965 594L964 593z"/>
<path style="fill:#b7d5fb; stroke:none;" d="M963 595L964 596L963 595z"/>
<path style="fill:#73acf7; stroke:none;" d="M961 598L962 599L961 598z"/>
<path style="fill:#93c0f9; stroke:none;" d="M960 600L961 601L960 600z"/>
<path style="fill:#b7d5fb; stroke:none;" d="M959 602L960 603L959 602z"/>
<path style="fill:#63a3f6; stroke:none;" d="M957 605L958 606L957 605z"/>
<path style="fill:#73acf7; stroke:none;" d="M956 607L957 608L956 607z"/>
<path style="fill:#93c0f9; stroke:none;" d="M955 609L956 610L955 609M954 611L955 612L954 611z"/>
<path style="fill:#b7d5fb; stroke:none;" d="M953 613L954 614L953 613M952 615L953 616L952 615M951 617L952 618L951 617M950 619L951 620L950 619M949 621L950 622L949 621z"/>
<path style="fill:#a5cafa; stroke:none;" d="M948 623L949 624L948 623z"/>
<path style="fill:#93c0f9; stroke:none;" d="M947 625L948 626L947 625M946 627L947 628L946 627z"/>
<path style="fill:#73acf7; stroke:none;" d="M945 629L946 630L945 629z"/>
<path style="fill:#b7d5fb; stroke:none;" d="M943 634L944 635L943 634z"/>
<path style="fill:#93c0f9; stroke:none;" d="M942 636L943 637L942 636z"/>
<path style="fill:#73acf7; stroke:none;" d="M941 638L942 639L941 638z"/>
<path style="fill:#b7d5fb; stroke:none;" d="M940 641L941 642L940 641z"/>
<path style="fill:#85b7f8; stroke:none;" d="M939 643L940 644L939 643z"/>
<path style="fill:#60a2f6; stroke:none;" d="M938 645L939 646L938 645z"/>
<path style="fill:#93c0f9; stroke:none;" d="M937 648L938 649L937 648z"/>
<path style="fill:#bcd8fb; stroke:none;" d="M936 651L937 652L936 651z"/>
<path style="fill:#73acf7; stroke:none;" d="M935 653L936 654L935 653z"/>
<path style="fill:#a5cafa; stroke:none;" d="M934 656L935 657L934 656z"/>
<path style="fill:#60a2f6; stroke:none;" d="M933 658L934 659L933 658z"/>
<path style="fill:#73acf7; stroke:none;" d="M932 661L933 662L932 661z"/>
<path style="fill:#85b7f8; stroke:none;" d="M931 664L932 665L931 664M930 667L931 668L930 667M929 670L930 671L929 670M928 673L929 674L928 673z"/>
<path style="fill:#73acf7; stroke:none;" d="M927 676L928 677L927 676z"/>
<path style="fill:#60a2f6; stroke:none;" d="M926 679L927 680L926 679z"/>
<path style="fill:#a5cafa; stroke:none;" d="M925 683L926 684L925 683z"/>
<path style="fill:#85b7f8; stroke:none;" d="M924 686L925 687L924 686z"/>
<path style="fill:#60a2f6; stroke:none;" d="M923 689L924 690L923 689z"/>
<path style="fill:#73acf7; stroke:none;" d="M922 693L923 694L922 693z"/>
<path style="fill:#85b7f8; stroke:none;" d="M921 697L922 698L921 697M920 701L921 702L920 701M919 705L920 706L919 705z"/>
<path style="fill:#deecfd; stroke:none;" d="M1391 705C1392.51 705.683 1393.31 705.826 1395 706C1393.49 705.317 1392.69 705.174 1391 705z"/>
<path style="fill:#9cc5f9; stroke:none;" d="M1395 705C1396.77 705.779 1398.04 705.912 1400 706C1398.23 705.221 1396.96 705.088 1395 705z"/>
<path style="fill:#5299f5; stroke:none;" d="M1400 705C1403.7 706.552 1408.02 706 1412 706C1408.3 704.448 1403.98 705 1400 705z"/>
<path style="fill:#9cc5f9; stroke:none;" d="M1382 706C1383.25 706.685 1383.55 706.749 1385 707C1383.75 706.315 1383.45 706.251 1382 706z"/>
<path style="fill:#5299f5; stroke:none;" d="M1385 706C1386.25 706.685 1386.55 706.749 1388 707C1386.75 706.315 1386.45 706.251 1385 706z"/>
<path style="fill:#9cc5f9; stroke:none;" d="M1374.67 707.333C1374.22 707.777 1375.28 707.722 1375.33 707.667C1375.78 707.222 1374.72 707.278 1374.67 707.333z"/>
<path style="fill:#5299f5; stroke:none;" d="M1376.67 707.333C1376.22 707.778 1377.28 707.722 1377.33 707.667C1377.78 707.223 1376.72 707.278 1376.67 707.333z"/>
<path style="fill:#73acf7; stroke:none;" d="M1368 708C1369.25 708.685 1369.55 708.749 1371 709C1369.75 708.315 1369.45 708.251 1368 708z"/>
<path style="fill:#bcd8fb; stroke:none;" d="M918.333 709.667C918.278 709.722 918.222 710.778 918.667 710.333C918.723 710.277 918.777 709.222 918.333 709.667z"/>
<path style="fill:#85b7f8; stroke:none;" d="M1362 709C1363.25 709.685 1363.55 709.749 1365 710C1363.75 709.315 1363.45 709.251 1362 709z"/>
<path style="fill:#5299f5; stroke:none;" d="M1358.67 710.333C1358.22 710.777 1359.28 710.722 1359.33 710.667C1359.78 710.223 1358.72 710.278 1358.67 710.333z"/>
<path style="fill:#aacdfa; stroke:none;" d="M1353 711L1354 712L1353 711z"/>
<path style="fill:#bcd8fb; stroke:none;" d="M1349 712L1350 713L1349 712z"/>
<path style="fill:#9cc5f9; stroke:none;" d="M917.333 713.667C917.278 713.722 917.222 714.778 917.667 714.333C917.723 714.277 917.777 713.223 917.333 713.667z"/>
<path style="fill:#85b7f8; stroke:none;" d="M1346 713L1347 714L1346 713z"/>
<path style="fill:#bcd8fb; stroke:none;" d="M1342 714L1343 715L1342 714z"/>
<path style="fill:#60a2f6; stroke:none;" d="M1343 714L1344 715L1343 714z"/>
<path style="fill:#a5cafa; stroke:none;" d="M1339 715L1340 716L1339 715M1336 716L1337 717L1336 716z"/>
<path style="fill:#bcd8fb; stroke:none;" d="M1333 717L1334 718L1333 717z"/>
<path style="fill:#60a2f6; stroke:none;" d="M1334 717L1335 718L1334 717z"/>
<path style="fill:#bcd8fb; stroke:none;" d="M916.333 718.667C916.278 718.722 916.222 719.778 916.667 719.333C916.723 719.277 916.777 718.223 916.333 718.667z"/>
<path style="fill:#73acf7; stroke:none;" d="M1331 718L1332 719L1331 718z"/>
<path style="fill:#b7d5fb; stroke:none;" d="M1328 719L1329 720L1328 719z"/>
<path style="fill:#73acf7; stroke:none;" d="M1326 720L1327 721L1326 720z"/>
<path style="fill:#85b7f8; stroke:none;" d="M915.333 722.667C915.278 722.722 915.222 723.778 915.667 723.333C915.723 723.277 915.778 722.222 915.333 722.667z"/>
<path style="fill:#b7d5fb; stroke:none;" d="M1321 722L1322 723L1321 722M1319 723L1320 724L1319 723z"/>
<path style="fill:#93c0f9; stroke:none;" d="M1317 724L1318 725L1317 724z"/>
<path style="fill:#b7d5fb; stroke:none;" d="M1315 725L1316 726L1315 725M1313 726L1314 727L1313 726z"/>
<path style="fill:#85b7f8; stroke:none;" d="M914.333 727.667C914.278 727.722 914.222 728.778 914.667 728.333C914.723 728.277 914.777 727.222 914.333 727.667z"/>
<path style="fill:#93c0f9; stroke:none;" d="M1308 729L1309 730L1308 729z"/>
<path style="fill:#a5cafa; stroke:none;" d="M1303 732L1304 733L1303 732z"/>
<path style="fill:#9cc5f9; stroke:none;" d="M913.333 733.667C913.278 733.722 913.222 734.778 913.667 734.333C913.723 734.277 913.778 733.222 913.333 733.667z"/>
<path style="fill:#a5cafa; stroke:none;" d="M1300 734L1301 735L1300 734z"/>
<path style="fill:#81b5f8; stroke:none;" d="M1296 737L1297 738L1296 737z"/>
<path style="fill:#85b7f8; stroke:none;" d="M912 738L912 741C912.696 739.446 912.696 739.554 912 738z"/>
<path style="fill:#a5cafa; stroke:none;" d="M1292 740L1293 741L1292 740z"/>
<path style="fill:#73acf7; stroke:none;" d="M1291 741L1292 742L1291 741M911 744L911 747C911.696 745.447 911.696 745.554 911 744z"/>
<path style="fill:#b4d3fb; stroke:none;" d="M1286 745L1287 746L1286 745M1285 746L1286 747L1285 746M1284 747L1285 748L1284 747z"/>
<path style="fill:#93c0f9; stroke:none;" d="M1283 748L1284 749L1283 748z"/>
<path style="fill:#73acf7; stroke:none;" d="M1282 749L1283 750L1282 749z"/>
<path style="fill:#5299f5; stroke:none;" d="M910.333 750.667C910.278 750.722 910.222 751.778 910.667 751.333C910.723 751.277 910.777 750.223 910.333 750.667z"/>
<path style="fill:#73acf7; stroke:none;" d="M1281 750L1282 751L1281 750z"/>
<path style="fill:#98c2f9; stroke:none;" d="M1280 751L1281 752L1280 751z"/>
<path style="fill:#9cc5f9; stroke:none;" d="M910.333 752.667C910.278 752.722 910.222 753.778 910.667 753.333C910.723 753.277 910.778 752.222 910.333 752.667z"/>
<path style="fill:#b4d3fb; stroke:none;" d="M1279 752L1280 753L1279 752M1278 753L1279 754L1278 753M1277 754L1278 755L1277 754z"/>
<path style="fill:#73acf7; stroke:none;" d="M909.333 758.667C909.278 758.722 909.222 759.778 909.667 759.333C909.723 759.277 909.777 758.223 909.333 758.667M1273 759L1274 760L1273 759z"/>
<path style="fill:#bcd8fb; stroke:none;" d="M909.333 760.667C909.278 760.722 909.222 761.778 909.667 761.333C909.723 761.277 909.778 760.222 909.333 760.667z"/>
<path style="fill:#b4d3fb; stroke:none;" d="M1272 760L1273 761L1272 760z"/>
<path style="fill:#93c0f9; stroke:none;" d="M1269 764L1270 765L1269 764z"/>
<path style="fill:#60a2f6; stroke:none;" d="M908.333 766.667C908.278 766.722 908.222 767.778 908.667 767.333C908.723 767.277 908.778 766.222 908.333 766.667z"/>
<path style="fill:#63a3f6; stroke:none;" d="M1267 767L1268 768L1267 767z"/>
<path style="fill:#9cc5f9; stroke:none;" d="M908.333 768.667C908.278 768.722 908.222 769.778 908.667 769.333C908.723 769.277 908.778 768.222 908.333 768.667z"/>
<path style="fill:#63a3f6; stroke:none;" d="M1265 770L1266 771L1265 770z"/>
<path style="fill:#73acf7; stroke:none;" d="M1263 773L1264 774L1263 773z"/>
<path style="fill:#5299f5; stroke:none;" d="M907 775L907 778C907.696 776.446 907.696 776.554 907 775z"/>
<path style="fill:#a5cafa; stroke:none;" d="M1261 776L1262 777L1261 776z"/>
<path style="fill:#9cc5f9; stroke:none;" d="M907.333 778.667C907.278 778.722 907.222 779.778 907.667 779.333C907.723 779.277 907.778 778.222 907.333 778.667z"/>
<path style="fill:#73acf7; stroke:none;" d="M1260 778L1261 779L1260 778z"/>
<path style="fill:#b7d5fb; stroke:none;" d="M1256 785L1257 786L1256 785z"/>
<path style="fill:#5299f5; stroke:none;" d="M906 786L906 789C906.696 787.446 906.696 787.554 906 786z"/>
<path style="fill:#9cc5f9; stroke:none;" d="M906 789L906 793C906.71 791.24 906.71 790.76 906 789z"/>
<path style="fill:#60a2f6; stroke:none;" d="M1254 790L1255 791L1254 790z"/>
<path style="fill:#73acf7; stroke:none;" d="M1253 792L1254 793L1253 792z"/>
<path style="fill:#b7d5fb; stroke:none;" d="M1252 794L1253 795L1252 794z"/>
<path style="fill:#73acf7; stroke:none;" d="M1251 797L1252 798L1251 797z"/>
<path style="fill:#b7d5fb; stroke:none;" d="M1250 799L1251 800L1250 799z"/>
<path style="fill:#5299f5; stroke:none;" d="M905 800L905 805C905.83 802.97 905.83 802.03 905 800z"/>
<path style="fill:#85b7f8; stroke:none;" d="M1249 802L1250 803L1249 802z"/>
<path style="fill:#9cc5f9; stroke:none;" d="M905 805L905 811C905.951 808.715 905.951 807.285 905 805z"/>
<path style="fill:#85b7f8; stroke:none;" d="M1248 805L1249 806L1248 805M1247 808L1248 809L1247 808z"/>
<path style="fill:#deecfd; stroke:none;" d="M905 811L905 818C906.059 815.466 906.059 813.534 905 811z"/>
<path style="fill:#aacdfa; stroke:none;" d="M1246 811L1247 812L1246 811z"/>
<path style="fill:#60a2f6; stroke:none;" d="M1246 812L1247 813L1246 812z"/>
<path style="fill:#85b7f8; stroke:none;" d="M1245 815L1246 816L1245 815M1244.33 818.667C1244.28 818.722 1244.22 819.778 1244.67 819.333C1244.72 819.278 1244.78 818.222 1244.33 818.667z"/>
<path style="fill:#98c2f9; stroke:none;" d="M1243 823L1244 824L1243 823z"/>
<path style="fill:#85b7f8; stroke:none;" d="M1242 827L1242 830C1242.7 828.446 1242.7 828.554 1242 827z"/>
<path style="fill:#73acf7; stroke:none;" d="M1241 833L1241 836C1241.7 834.446 1241.7 834.554 1241 833z"/>
<path style="fill:#9cc5f9; stroke:none;" d="M1240.33 839.667C1240.28 839.722 1240.22 840.778 1240.67 840.333C1240.72 840.278 1240.78 839.222 1240.33 839.667z"/>
<path style="fill:#5299f5; stroke:none;" d="M1240.33 841.667C1240.28 841.722 1240.22 842.778 1240.67 842.333C1240.72 842.278 1240.78 841.222 1240.33 841.667z"/>
<path style="fill:#9cc5f9; stroke:none;" d="M1239.33 848.667C1239.28 848.722 1239.22 849.778 1239.67 849.333C1239.72 849.278 1239.78 848.222 1239.33 848.667z"/>
<path style="fill:#5299f5; stroke:none;" d="M1239 850L1239 854C1239.71 852.24 1239.71 851.76 1239 850z"/>
<path style="fill:#deecfd; stroke:none;" d="M1238 857L1238 862C1238.83 859.97 1238.83 859.03 1238 857z"/>
<path style="fill:#9cc5f9; stroke:none;" d="M1238 862L1238 1071C1240.09 1066.03 1239 1059.35 1239 1054L1239 1018L1239 909L1239 878C1239 872.92 1239.98 866.72 1238 862M634 1071C640.919 1073.9 651.52 1072 659 1072L714 1072L905 1072C898.081 1069.1 887.48 1071 880 1071L825 1071L634 1071M1239 1071C1246.4 1074.1 1257.99 1072 1266 1072L1326 1072L1534 1072C1526.6 1068.9 1515.01 1071 1507 1071L1447 1071L1239 1071z"/>
<path style="fill:#5299f5; stroke:none;" d="M1534.33 1071.67C1534.28 1071.72 1534.22 1072.78 1534.67 1072.33C1534.72 1072.28 1534.78 1071.22 1534.33 1071.67z"/>
<path style="fill:#85b7f8; stroke:none;" d="M1533.33 1076.67C1533.28 1076.72 1533.22 1077.78 1533.67 1077.33C1533.72 1077.28 1533.78 1076.22 1533.33 1076.67z"/>
<path style="fill:#cce1fc; stroke:none;" d="M1532 1081L1532 1084C1532.7 1082.45 1532.7 1082.55 1532 1081z"/>
<path style="fill:#5299f5; stroke:none;" d="M1532.33 1084.67C1532.28 1084.72 1532.22 1085.78 1532.67 1085.33C1532.72 1085.28 1532.78 1084.22 1532.33 1084.67z"/>
<path style="fill:#85b7f8; stroke:none;" d="M1531.33 1089.67C1531.28 1089.72 1531.22 1090.78 1531.67 1090.33C1531.72 1090.28 1531.78 1089.22 1531.33 1089.67z"/>
<path style="fill:#cce1fc; stroke:none;" d="M1530 1094L1530 1097C1530.7 1095.45 1530.7 1095.55 1530 1094z"/>
<path style="fill:#5299f5; stroke:none;" d="M1530.33 1097.67C1530.28 1097.72 1530.22 1098.78 1530.67 1098.33C1530.72 1098.28 1530.78 1097.22 1530.33 1097.67z"/>
<path style="fill:#85b7f8; stroke:none;" d="M1529.33 1102.67C1529.28 1102.72 1529.22 1103.78 1529.67 1103.33C1529.72 1103.28 1529.78 1102.22 1529.33 1102.67z"/>
<path style="fill:#cce1fc; stroke:none;" d="M1528 1107L1528 1110C1528.7 1108.45 1528.7 1108.55 1528 1107z"/>
<path style="fill:#5299f5; stroke:none;" d="M1528.33 1110.67C1528.28 1110.72 1528.22 1111.78 1528.67 1111.33C1528.72 1111.28 1528.78 1110.22 1528.33 1110.67z"/>
<path style="fill:#98c2f9; stroke:none;" d="M1527.33 1115.67C1527.28 1115.72 1527.22 1116.78 1527.67 1116.33C1527.72 1116.28 1527.78 1115.22 1527.33 1115.67z"/>
<path style="fill:#9cc5f9; stroke:none;" d="M1526.33 1121.67C1526.28 1121.72 1526.22 1122.78 1526.67 1122.33C1526.72 1122.28 1526.78 1121.22 1526.33 1121.67z"/>
<path style="fill:#5299f5; stroke:none;" d="M1526.33 1123.67C1526.28 1123.72 1526.22 1124.78 1526.67 1124.33C1526.72 1124.28 1526.78 1123.22 1526.33 1123.67z"/>
<path style="fill:#98c2f9; stroke:none;" d="M1525.33 1128.67C1525.28 1128.72 1525.22 1129.78 1525.67 1129.33C1525.72 1129.28 1525.78 1128.22 1525.33 1128.67z"/>
<path style="fill:#9cc5f9; stroke:none;" d="M1524.33 1134.67C1524.28 1134.72 1524.22 1135.78 1524.67 1135.33C1524.72 1135.28 1524.78 1134.22 1524.33 1134.67z"/>
<path style="fill:#5299f5; stroke:none;" d="M1524.33 1136.67C1524.28 1136.72 1524.22 1137.78 1524.67 1137.33C1524.72 1137.28 1524.78 1136.22 1524.33 1136.67z"/>
<path style="fill:#98c2f9; stroke:none;" d="M1523.33 1141.67C1523.28 1141.72 1523.22 1142.78 1523.67 1142.33C1523.72 1142.28 1523.78 1141.22 1523.33 1141.67z"/>
<path style="fill:#9cc5f9; stroke:none;" d="M1522.33 1147.67C1522.28 1147.72 1522.22 1148.78 1522.67 1148.33C1522.72 1148.28 1522.78 1147.22 1522.33 1147.67z"/>
<path style="fill:#5299f5; stroke:none;" d="M1522.33 1149.67C1522.28 1149.72 1522.22 1150.78 1522.67 1150.33C1522.72 1150.28 1522.78 1149.22 1522.33 1149.67z"/>
<path style="fill:#98c2f9; stroke:none;" d="M1521.33 1154.67C1521.28 1154.72 1521.22 1155.78 1521.67 1155.33C1521.72 1155.28 1521.78 1154.22 1521.33 1154.67z"/>
<path style="fill:#4391f4; stroke:none;" d="M1521.33 1156.67C1521.28 1156.72 1521.22 1157.78 1521.67 1157.33C1521.72 1157.28 1521.78 1156.22 1521.33 1156.67z"/>
<path style="fill:#dbeafd; stroke:none;" d="M1520.33 1159.67C1520.28 1159.72 1520.22 1160.78 1520.67 1160.33C1520.72 1160.28 1520.78 1159.22 1520.33 1159.67z"/>
<path style="fill:#73acf7; stroke:none;" d="M1520 1161L1520 1164C1520.7 1162.45 1520.7 1162.55 1520 1161z"/>
<path style="fill:#98c2f9; stroke:none;" d="M1519.33 1167.67C1519.28 1167.72 1519.22 1168.78 1519.67 1168.33C1519.72 1168.28 1519.78 1167.22 1519.33 1167.67z"/>
<path style="fill:#4391f4; stroke:none;" d="M1519.33 1169.67C1519.28 1169.72 1519.22 1170.78 1519.67 1170.33C1519.72 1170.28 1519.78 1169.22 1519.33 1169.67z"/>
<path style="fill:#dbeafd; stroke:none;" d="M1518.33 1172.67C1518.28 1172.72 1518.22 1173.78 1518.67 1173.33C1518.72 1173.28 1518.78 1172.22 1518.33 1172.67z"/>
<path style="fill:#73acf7; stroke:none;" d="M1518 1174L1518 1177C1518.7 1175.45 1518.7 1175.55 1518 1174z"/>
<path style="fill:#98c2f9; stroke:none;" d="M1517.33 1180.67C1517.28 1180.72 1517.22 1181.78 1517.67 1181.33C1517.72 1181.28 1517.78 1180.22 1517.33 1180.67z"/>
<path style="fill:#4391f4; stroke:none;" d="M1517.33 1182.67C1517.28 1182.72 1517.22 1183.78 1517.67 1183.33C1517.72 1183.28 1517.78 1182.22 1517.33 1182.67z"/>
<path style="fill:#dbeafd; stroke:none;" d="M1516.33 1185.67C1516.28 1185.72 1516.22 1186.78 1516.67 1186.33C1516.72 1186.28 1516.78 1185.22 1516.33 1185.67z"/>
<path style="fill:#73acf7; stroke:none;" d="M1516 1187L1516 1190C1516.7 1188.45 1516.7 1188.55 1516 1187z"/>
<path style="fill:#98c2f9; stroke:none;" d="M1515.33 1193.67C1515.28 1193.72 1515.22 1194.78 1515.67 1194.33C1515.72 1194.28 1515.78 1193.22 1515.33 1193.67z"/>
<path style="fill:#4391f4; stroke:none;" d="M1515.33 1195.67C1515.28 1195.72 1515.22 1196.78 1515.67 1196.33C1515.72 1196.28 1515.78 1195.22 1515.33 1195.67z"/>
<path style="fill:#85b7f8; stroke:none;" d="M1514.33 1200.67C1514.28 1200.72 1514.22 1201.78 1514.67 1201.33C1514.72 1201.28 1514.78 1200.22 1514.33 1200.67z"/>
<path style="fill:#9cc5f9; stroke:none;" d="M1513.33 1206.67C1513.28 1206.72 1513.22 1207.78 1513.67 1207.33C1513.72 1207.28 1513.78 1206.22 1513.33 1206.67z"/>
<path style="fill:#4391f4; stroke:none;" d="M1513.33 1208.67C1513.28 1208.72 1513.22 1209.78 1513.67 1209.33C1513.72 1209.28 1513.78 1208.22 1513.33 1208.67z"/>
<path style="fill:#85b7f8; stroke:none;" d="M1512.33 1213.67C1512.28 1213.72 1512.22 1214.78 1512.67 1214.33C1512.72 1214.28 1512.78 1213.22 1512.33 1213.67z"/>
<path style="fill:#9cc5f9; stroke:none;" d="M1511.33 1219.67C1511.28 1219.72 1511.22 1220.78 1511.67 1220.33C1511.72 1220.28 1511.78 1219.22 1511.33 1219.67z"/>
<path style="fill:#4391f4; stroke:none;" d="M1511.33 1221.67C1511.28 1221.72 1511.22 1222.78 1511.67 1222.33C1511.72 1222.28 1511.78 1221.22 1511.33 1221.67z"/>
<path style="fill:#85b7f8; stroke:none;" d="M1510.33 1226.67C1510.28 1226.72 1510.22 1227.78 1510.67 1227.33C1510.72 1227.28 1510.78 1226.22 1510.33 1226.67z"/>
<path style="fill:#9cc5f9; stroke:none;" d="M1509.33 1232.67C1509.28 1232.72 1509.22 1233.78 1509.67 1233.33C1509.72 1233.28 1509.78 1232.22 1509.33 1232.67z"/>
<path style="fill:#4391f4; stroke:none;" d="M1509.33 1234.67C1509.28 1234.72 1509.22 1235.78 1509.67 1235.33C1509.72 1235.28 1509.78 1234.22 1509.33 1234.67z"/>
<path style="fill:#85b7f8; stroke:none;" d="M1508.33 1239.67C1508.28 1239.72 1508.22 1240.78 1508.67 1240.33C1508.72 1240.28 1508.78 1239.22 1508.33 1239.67z"/>
<path style="fill:#cce1fc; stroke:none;" d="M1507 1244L1507 1247C1507.7 1245.45 1507.7 1245.55 1507 1244z"/>
<path style="fill:#5299f5; stroke:none;" d="M1507.33 1247.67C1507.28 1247.72 1507.22 1248.78 1507.67 1248.33C1507.72 1248.28 1507.78 1247.22 1507.33 1247.67z"/>
<path style="fill:#85b7f8; stroke:none;" d="M1506.33 1252.67C1506.28 1252.72 1506.22 1253.78 1506.67 1253.33C1506.72 1253.28 1506.78 1252.22 1506.33 1252.67z"/>
<path style="fill:#cce1fc; stroke:none;" d="M1505 1257L1505 1260C1505.7 1258.45 1505.7 1258.55 1505 1257z"/>
<path style="fill:#5299f5; stroke:none;" d="M1505.33 1260.67C1505.28 1260.72 1505.22 1261.78 1505.67 1261.33C1505.72 1261.28 1505.78 1260.22 1505.33 1260.67z"/>
<path style="fill:#85b7f8; stroke:none;" d="M1504.33 1265.67C1504.28 1265.72 1504.22 1266.78 1504.67 1266.33C1504.72 1266.28 1504.78 1265.22 1504.33 1265.67z"/>
<path style="fill:#cce1fc; stroke:none;" d="M1503 1270L1503 1273C1503.7 1271.45 1503.7 1271.55 1503 1270z"/>
<path style="fill:#5299f5; stroke:none;" d="M1503.33 1273.67C1503.28 1273.72 1503.22 1274.78 1503.67 1274.33C1503.72 1274.28 1503.78 1273.22 1503.33 1273.67z"/>
<path style="fill:#98c2f9; stroke:none;" d="M1502.33 1278.67C1502.28 1278.72 1502.22 1279.78 1502.67 1279.33C1502.72 1279.28 1502.78 1278.22 1502.33 1278.67z"/>
<path style="fill:#9cc5f9; stroke:none;" d="M1501.33 1284.67C1501.28 1284.72 1501.22 1285.78 1501.67 1285.33C1501.72 1285.28 1501.78 1284.22 1501.33 1284.67z"/>
<path style="fill:#5299f5; stroke:none;" d="M1501.33 1286.67C1501.28 1286.72 1501.22 1287.78 1501.67 1287.33C1501.72 1287.28 1501.78 1286.22 1501.33 1286.67z"/>
<path style="fill:#98c2f9; stroke:none;" d="M1500.33 1291.67C1500.28 1291.72 1500.22 1292.78 1500.67 1292.33C1500.72 1292.28 1500.78 1291.22 1500.33 1291.67z"/>
<path style="fill:#9cc5f9; stroke:none;" d="M1499.33 1297.67C1499.28 1297.72 1499.22 1298.78 1499.67 1298.33C1499.72 1298.28 1499.78 1297.22 1499.33 1297.67z"/>
<path style="fill:#5299f5; stroke:none;" d="M1499.33 1299.67C1499.28 1299.72 1499.22 1300.78 1499.67 1300.33C1499.72 1300.28 1499.78 1299.22 1499.33 1299.67z"/>
<path style="fill:#98c2f9; stroke:none;" d="M1498.33 1304.67C1498.28 1304.72 1498.22 1305.78 1498.67 1305.33C1498.72 1305.28 1498.78 1304.22 1498.33 1304.67z"/>
<path style="fill:#9cc5f9; stroke:none;" d="M1497.33 1310.67C1497.28 1310.72 1497.22 1311.78 1497.67 1311.33C1497.72 1311.28 1497.78 1310.22 1497.33 1310.67z"/>
<path style="fill:#5299f5; stroke:none;" d="M1497.33 1312.67C1497.28 1312.72 1497.22 1313.78 1497.67 1313.33C1497.72 1313.28 1497.78 1312.22 1497.33 1312.67z"/>
<path style="fill:#98c2f9; stroke:none;" d="M1496.33 1317.67C1496.28 1317.72 1496.22 1318.78 1496.67 1318.33C1496.72 1318.28 1496.78 1317.22 1496.33 1317.67z"/>
<path style="fill:#4391f4; stroke:none;" d="M1496.33 1319.67C1496.28 1319.72 1496.22 1320.78 1496.67 1320.33C1496.72 1320.28 1496.78 1319.22 1496.33 1319.67z"/>
<path style="fill:#dbeafd; stroke:none;" d="M1495.33 1322.67C1495.28 1322.72 1495.22 1323.78 1495.67 1323.33C1495.72 1323.28 1495.78 1322.22 1495.33 1322.67z"/>
<path style="fill:#73acf7; stroke:none;" d="M1495 1324L1495 1327C1495.7 1325.45 1495.7 1325.55 1495 1324z"/>
<path style="fill:#98c2f9; stroke:none;" d="M1494.33 1330.67C1494.28 1330.72 1494.22 1331.78 1494.67 1331.33C1494.72 1331.28 1494.78 1330.22 1494.33 1330.67z"/>
<path style="fill:#4391f4; stroke:none;" d="M1494.33 1332.67C1494.28 1332.72 1494.22 1333.78 1494.67 1333.33C1494.72 1333.28 1494.78 1332.22 1494.33 1332.67z"/>
<path style="fill:#dbeafd; stroke:none;" d="M1493.33 1335.67C1493.28 1335.72 1493.22 1336.78 1493.67 1336.33C1493.72 1336.28 1493.78 1335.22 1493.33 1335.67z"/>
<path style="fill:#73acf7; stroke:none;" d="M1493 1337L1493 1340C1493.7 1338.45 1493.7 1338.55 1493 1337z"/>
<path style="fill:#98c2f9; stroke:none;" d="M1492.33 1343.67C1492.28 1343.72 1492.22 1344.78 1492.67 1344.33C1492.72 1344.28 1492.78 1343.22 1492.33 1343.67z"/>
<path style="fill:#4391f4; stroke:none;" d="M1492.33 1345.67C1492.28 1345.72 1492.22 1346.78 1492.67 1346.33C1492.72 1346.28 1492.78 1345.22 1492.33 1345.67z"/>
<path style="fill:#dbeafd; stroke:none;" d="M1491.33 1348.67C1491.28 1348.72 1491.22 1349.78 1491.67 1349.33C1491.72 1349.28 1491.78 1348.22 1491.33 1348.67z"/>
<path style="fill:#73acf7; stroke:none;" d="M1491 1350L1491 1353C1491.7 1351.45 1491.7 1351.55 1491 1350z"/>
<path style="fill:#98c2f9; stroke:none;" d="M1490.33 1356.67C1490.28 1356.72 1490.22 1357.78 1490.67 1357.33C1490.72 1357.28 1490.78 1356.22 1490.33 1356.67z"/>
<path style="fill:#4391f4; stroke:none;" d="M1490.33 1358.67C1490.28 1358.72 1490.22 1359.78 1490.67 1359.33C1490.72 1359.28 1490.78 1358.22 1490.33 1358.67z"/>
<path style="fill:#dbeafd; stroke:none;" d="M1489.33 1361.67C1489.28 1361.72 1489.22 1362.78 1489.67 1362.33C1489.72 1362.28 1489.78 1361.22 1489.33 1361.67z"/>
<path style="fill:#85b7f8; stroke:none;" d="M1489.33 1363.67C1489.28 1363.72 1489.22 1364.78 1489.67 1364.33C1489.72 1364.28 1489.78 1363.22 1489.33 1363.67z"/>
<path style="fill:#9cc5f9; stroke:none;" d="M1488.33 1369.67C1488.28 1369.72 1488.22 1370.78 1488.67 1370.33C1488.72 1370.28 1488.78 1369.22 1488.33 1369.67z"/>
<path style="fill:#4391f4; stroke:none;" d="M1488.33 1371.67C1488.28 1371.72 1488.22 1372.78 1488.67 1372.33C1488.72 1372.28 1488.78 1371.22 1488.33 1371.67z"/>
<path style="fill:#85b7f8; stroke:none;" d="M1487.33 1376.67C1487.28 1376.72 1487.22 1377.78 1487.67 1377.33C1487.72 1377.28 1487.78 1376.22 1487.33 1376.67z"/>
<path style="fill:#9cc5f9; stroke:none;" d="M1238 1380L1238 2126C1240.19 2120.78 1239 2113.62 1239 2108L1239 2071L1239 1941L1239 1543L1239 1429L1239 1396C1239 1390.92 1239.98 1384.72 1238 1380z"/>
</svg>
