<svg xmlns="http://www.w3.org/2000/svg" viewBox="0 0 48 48"><defs><style>.cls-1,.cls-2{fill:none;}.cls-2{stroke:#000;stroke-linecap:round;stroke-linejoin:round;stroke-width:2px;}</style></defs><title>calendar_31st_24</title><g id="レイヤー_2" data-name="レイヤー 2"><g id="Rectangle"><rect class="cls-1" width="48" height="48"/></g><g id="icon_data"><path class="cls-2" d="M16,10H7a2,2,0,0,0-2,2V40a2,2,0,0,0,2,2H41a2,2,0,0,0,2-2V12a2,2,0,0,0-2-2H38"/><line class="cls-2" x1="16" y1="6" x2="16" y2="14"/><line class="cls-2" x1="32" y1="6" x2="32" y2="14"/><line class="cls-2" x1="22" y1="10" x2="32" y2="10"/><line class="cls-2" x1="35" y1="20" x2="37" y2="20"/><line class="cls-2" x1="11" y1="20" x2="13" y2="20"/><line class="cls-2" x1="19" y1="20" x2="21" y2="20"/><line class="cls-2" x1="27" y1="20" x2="29" y2="20"/><line class="cls-2" x1="35" y1="26" x2="37" y2="26"/><line class="cls-2" x1="11" y1="26" x2="13" y2="26"/><line class="cls-2" x1="19" y1="26" x2="21" y2="26"/><line class="cls-2" x1="27" y1="26" x2="29" y2="26"/><line class="cls-2" x1="11" y1="32" x2="13" y2="32"/><line class="cls-2" x1="19" y1="32" x2="21" y2="32"/><line class="cls-2" x1="27" y1="32" x2="29" y2="32"/></g></g></svg>